<svg width="71" height="72" xmlns="http://www.w3.org/2000/svg" xmlns:xlink="http://www.w3.org/1999/xlink" xml:space="preserve" overflow="hidden"><g transform="translate(-230 -492)"><g><g><g><g><path d="M277.667 514.875C277.667 521.318 272.443 526.542 266 526.542 259.557 526.542 254.333 521.318 254.333 514.875 254.333 508.432 259.557 503.208 266 503.208 272.443 503.208 277.667 508.432 277.667 514.875Z" stroke="#C00000" stroke-width="2.70531" stroke-linecap="butt" stroke-linejoin="miter" stroke-miterlimit="4" stroke-opacity="1" fill="#FFFFFF" fill-rule="nonzero" fill-opacity="1"/><path d="M289.333 552.792 289.333 541.125C289.333 539.375 288.458 537.625 287 536.458 283.792 533.833 279.708 532.083 275.625 530.917 272.708 530.042 269.5 529.458 266 529.458 262.792 529.458 259.583 530.042 256.375 530.917 252.292 532.083 248.208 534.125 245 536.458 243.542 537.625 242.667 539.375 242.667 541.125L242.667 552.792 289.333 552.792Z" stroke="#C00000" stroke-width="2.70531" stroke-linecap="butt" stroke-linejoin="miter" stroke-miterlimit="4" stroke-opacity="1" fill="#FFFFFF" fill-rule="nonzero" fill-opacity="1"/></g></g></g></g></g></svg>