<svg width="70" height="70" xmlns="http://www.w3.org/2000/svg" xmlns:xlink="http://www.w3.org/1999/xlink" xml:space="preserve" overflow="hidden"><g transform="translate(-698 -362)"><g><g><g><g><path d="M760.812 378.812 760.812 414.031 706.188 414.031 706.188 378.812 701.875 378.812 701.875 419.062 727.031 419.062C727.031 420.284 727.966 421.219 729.188 421.219L737.812 421.219C739.034 421.219 739.969 420.284 739.969 419.062L765.125 419.062 765.125 378.812 760.812 378.812Z" fill="#C00000" fill-rule="nonzero" fill-opacity="1"/><path d="M757.938 374.5 709.062 374.5 709.062 411.156 757.938 411.156 757.938 374.5ZM713.375 378.812 732.062 378.812 732.062 406.844 713.375 406.844 713.375 378.812ZM753.625 406.844 734.938 406.844 734.938 378.812 753.625 378.812 753.625 406.844Z" fill="#C00000" fill-rule="nonzero" fill-opacity="1"/><path d="M739.25 386 749.312 386 749.312 388.156 739.25 388.156Z" fill="#C00000" fill-rule="nonzero" fill-opacity="1"/><path d="M739.25 390.312 749.312 390.312 749.312 392.469 739.25 392.469Z" fill="#C00000" fill-rule="nonzero" fill-opacity="1"/><path d="M739.25 394.625 746.222 394.625 746.222 396.781 739.25 396.781Z" fill="#C00000" fill-rule="nonzero" fill-opacity="1"/></g></g></g></g></g></svg>