<svg width="70" height="72" xmlns="http://www.w3.org/2000/svg" xmlns:xlink="http://www.w3.org/1999/xlink" xml:space="preserve" overflow="hidden"><g transform="translate(-698 -492)"><g><g><g><g><path d="M12.5062 12.2188C11.1487 12.2267 10.0546 13.3336 10.0625 14.6912 10.0625 14.6912 10.0625 14.6913 10.0625 14.6913L10.0625 44.505C10.1244 45.7896 11.216 46.7809 12.5006 46.719 12.5024 46.719 12.5044 46.7188 12.5062 46.7188L20.125 46.7188 20.125 56.7812 29.6125 46.7188 56.5944 46.7188C57.8805 46.7267 58.9295 45.6906 58.9375 44.4044 58.9375 44.4044 58.9375 44.4044 58.9375 44.4044L58.9375 14.6913C58.9455 13.3337 57.8514 12.2267 56.4938 12.2188 56.4938 12.2188 56.4937 12.2188 56.4937 12.2188ZM53.9062 33.7812 45.2812 33.7812 45.2812 30.9062 53.9062 30.9062ZM40.25 36.6562 53.9062 36.6562 53.9062 39.5312 40.25 39.5312ZM29.4688 36.6562 37.375 36.6562 37.375 39.5312 29.4688 39.5312ZM27.3125 30.9062 41.6875 30.9062 41.6875 33.7812 27.3125 33.7812ZM18.6875 36.6562 26.5938 36.6562 26.5938 39.5312 18.6875 39.5312ZM15.0938 30.9062 24.4375 30.9062 24.4375 33.7812 15.0938 33.7812Z" fill="#C00000" fill-rule="nonzero" fill-opacity="1" transform="matrix(1 0 0 1.01449 699 493)"/></g></g></g></g></g></svg>